<?xml version="1.0" encoding="UTF-8"?>
<svg width="800" height="650" xmlns="http://www.w3.org/2000/svg" xmlns:xlink="http://www.w3.org/1999/xlink">

  <defs>
    <marker id="arrowhead" markerWidth="10" markerHeight="7" refX="0" refY="3.5" orient="auto">
      <polygon points="0 0, 10 3.5, 0 7" fill="#333" />
    </marker>
  </defs>

  <rect width="800" height="650" fill="#f8f9fa" />

  <text x="380" y="40" font-family="Arial, sans-serif" font-size="24" font-weight="bold" text-anchor="middle" fill="#333">Halberd Join System</text>

  <g transform="translate(730, 25) scale(0.55)">
    <rect x="-3" y="0" width="6" height="85" fill="#8B4513" stroke="#5a3921" stroke-width="1"/>

    <rect x="-4" y="-5" width="8" height="8" fill="#A9A9A9" stroke="#555" stroke-width="1"/>

    <path d="M 0 -5 L -6 -30 L 0 -35 L 6 -30 Z" fill="#C0C0C0" stroke="#555" stroke-width="1.5" stroke-linejoin="round"/>

    <path d="M -2 -3 L -2 -15 Q -35 -20 -30 -5 L -2 -3 Z" fill="#A9A9A9" stroke="#555" stroke-width="1.5" stroke-linejoin="round"/>

    <path d="M 2 -3 L 20 -10 L 15 -2 L 2 -3 Z" fill="#A9A9A9" stroke="#555" stroke-width="1.5" stroke-linejoin="round"/>
  </g>

  <rect x="20" y="70" width="760" height="280" rx="10" fill="#e9ecef" stroke="#495057" stroke-width="2" />
  <text x="400" y="95" font-family="Arial, sans-serif" font-size="18" font-weight="bold" text-anchor="middle" fill="#495057">Phase 1: Parallel Radix Partitioning &amp; Local Build</text>

  <rect x="50" y="120" width="120" height="50" rx="5" fill="#4dabf7" stroke="#1864ab" stroke-width="2" />
  <text x="110" y="140" font-family="Arial, sans-serif" font-size="14" text-anchor="middle" fill="white">Left Table</text>
  <text x="110" y="158" font-family="Arial, sans-serif" font-size="12" text-anchor="middle" fill="white">(Build Side)</text>

  <rect x="630" y="120" width="120" height="50" rx="5" fill="#69db7c" stroke="#2b8a3e" stroke-width="2" />
  <text x="690" y="140" font-family="Arial, sans-serif" font-size="14" text-anchor="middle" fill="white">Right Table</text>
  <text x="690" y="158" font-family="Arial, sans-serif" font-size="12" text-anchor="middle" fill="white">(Probe Side)</text>

  <text x="400" y="195" font-family="Arial, sans-serif" font-size="14" font-style="italic" text-anchor="middle" fill="#555">Radix Partitioning</text>
  <line x1="110" y1="170" x2="110" y2="210" stroke="#333" stroke-width="1.5" marker-end="url(#arrowhead)" />
  <line x1="690" y1="170" x2="690" y2="210" stroke="#333" stroke-width="1.5" marker-end="url(#arrowhead)" />
  <line x1="110" y1="210" x2="300" y2="210" stroke="#333" stroke-width="1.5" />
  <line x1="500" y1="210" x2="690" y2="210" stroke="#333" stroke-width="1.5" />
  <line x1="300" y1="210" x2="320" y2="230" stroke="#333" stroke-width="1.5" marker-end="url(#arrowhead)" />
   <line x1="500" y1="210" x2="480" y2="230" stroke="#333" stroke-width="1.5" marker-end="url(#arrowhead)" />


  <rect x="50" y="230" width="300" height="100" rx="8" fill="#ced4da" stroke="#495057" stroke-width="1" stroke-dasharray="4"/>
  <text x="200" y="250" font-family="Arial, sans-serif" font-size="12" text-anchor="middle" fill="#333">NUMA Node 1</text>
  <rect x="70" y="265" width="100" height="50" rx="5" fill="#15aabf" stroke="#0b7285" stroke-width="1" />
  <text x="120" y="285" font-family="Arial, sans-serif" font-size="12" text-anchor="middle" fill="white">Worker(s)</text>
  <text x="120" y="300" font-family="Arial, sans-serif" font-size="10" text-anchor="middle" fill="white">(Partition 1)</text>
  <rect x="180" y="265" width="150" height="50" rx="5" fill="#4dabf7" stroke="#1864ab" stroke-width="1" />
  <text x="255" y="280" font-family="Arial, sans-serif" font-size="11" text-anchor="middle" fill="white">Build Local</text>
  <text x="255" y="295" font-family="Arial, sans-serif" font-size="11" text-anchor="middle" fill="white">Hash Table (P1)</text>
  <line x1="170" y1="290" x2="180" y2="290" stroke="#333" stroke-width="1.5" marker-end="url(#arrowhead)" /> <rect x="450" y="230" width="300" height="100" rx="8" fill="#ced4da" stroke="#495057" stroke-width="1" stroke-dasharray="4"/>
  <text x="600" y="250" font-family="Arial, sans-serif" font-size="12" text-anchor="middle" fill="#333">NUMA Node 2</text>
   <rect x="470" y="265" width="100" height="50" rx="5" fill="#15aabf" stroke="#0b7285" stroke-width="1" />
   <text x="520" y="285" font-family="Arial, sans-serif" font-size="12" text-anchor="middle" fill="white">Worker(s)</text>
   <text x="520" y="300" font-family="Arial, sans-serif" font-size="10" text-anchor="middle" fill="white">(Partition N)</text>
   <rect x="580" y="265" width="150" height="50" rx="5" fill="#4dabf7" stroke="#1864ab" stroke-width="1" />
  <text x="655" y="280" font-family="Arial, sans-serif" font-size="11" text-anchor="middle" fill="white">Build Local</text>
  <text x="655" y="295" font-family="Arial, sans-serif" font-size="11" text-anchor="middle" fill="white">Hash Table (PN)</text>
  <line x1="570" y1="290" x2="580" y2="290" stroke="#333" stroke-width="1.5" marker-end="url(#arrowhead)" /> <line x1="320" y1="230" x2="120" y2="265" stroke="#333" stroke-width="1.5" marker-end="url(#arrowhead)" />
   <line x1="480" y1="230" x2="520" y2="265" stroke="#333" stroke-width="1.5" marker-end="url(#arrowhead)" />

  <rect x="20" y="370" width="760" height="260" rx="10" fill="#e9ecef" stroke="#495057" stroke-width="2" />
  <text x="400" y="395" font-family="Arial, sans-serif" font-size="18" font-weight="bold" text-anchor="middle" fill="#495057">Phase 2: Parallel Local Probe &amp; Result Gathering</text>

  <rect x="70" y="420" width="300" height="100" rx="5" fill="#f1f3f5" stroke="#adb5bd" stroke-width="1"/>
   <text x="220" y="438" font-family="Arial, sans-serif" font-size="12" text-anchor="middle" fill="#333">NUMA Node 1 Processing</text>
   <rect x="90" y="450" width="100" height="50" rx="5" fill="#69db7c" stroke="#2b8a3e" stroke-width="1" />
   <text x="140" y="468" font-family="Arial, sans-serif" font-size="11" text-anchor="middle" fill="white">Probe Side</text>
   <text x="140" y="482" font-family="Arial, sans-serif" font-size="11" text-anchor="middle" fill="white">Morsels (P1)</text>
   <rect x="230" y="450" width="120" height="50" rx="5" fill="#c3fae8" stroke="#2b8a3e" stroke-width="1" />
   <text x="290" y="475" font-family="Arial, sans-serif" font-size="12" text-anchor="middle" fill="#087f5b">Local Results (P1)</text>
   <path d="M 190 475 Q 210 455 230 475" stroke="#333" stroke-width="1.5" fill="none" marker-end="url(#arrowhead)" />
   <text x="210" y="460" font-family="Arial, sans-serif" font-size="10" text-anchor="middle" fill="#333">Probe</text>

  <rect x="430" y="420" width="300" height="100" rx="5" fill="#f1f3f5" stroke="#adb5bd" stroke-width="1"/>
   <text x="580" y="438" font-family="Arial, sans-serif" font-size="12" text-anchor="middle" fill="#333">NUMA Node 2 Processing</text>
   <rect x="450" y="450" width="100" height="50" rx="5" fill="#69db7c" stroke="#2b8a3e" stroke-width="1" />
   <text x="500" y="468" font-family="Arial, sans-serif" font-size="11" text-anchor="middle" fill="white">Probe Side</text>
   <text x="500" y="482" font-family="Arial, sans-serif" font-size="11" text-anchor="middle" fill="white">Morsels (PN)</text>
    <rect x="590" y="450" width="120" height="50" rx="5" fill="#c3fae8" stroke="#2b8a3e" stroke-width="1" />
   <text x="650" y="475" font-family="Arial, sans-serif" font-size="12" text-anchor="middle" fill="#087f5b">Local Results (PN)</text>
   <path d="M 550 475 Q 570 455 590 475" stroke="#333" stroke-width="1.5" fill="none" marker-end="url(#arrowhead)" />
   <text x="570" y="460" font-family="Arial, sans-serif" font-size="10" text-anchor="middle" fill="#333">Probe</text>

   <line x1="255" y1="315" x2="290" y2="450" stroke="#adb5bd" stroke-width="1.5" stroke-dasharray="5, 5" />
   <text x="280" y="380" font-family="Arial, sans-serif" font-size="10" fill="#555" transform="rotate(-30 280 380)">Uses Local HT (P1)</text>
   <line x1="655" y1="315" x2="650" y2="450" stroke="#adb5bd" stroke-width="1.5" stroke-dasharray="5, 5" />
    <text x="655" y="380" font-family="Arial, sans-serif" font-size="10" fill="#555" transform="rotate(5 655 380)">Uses Local HT (PN)</text>

  <rect x="300" y="550" width="200" height="60" rx="8" fill="#ffe066" stroke="#e67700" stroke-width="2" />
  <text x="400" y="580" font-family="Arial, sans-serif" font-size="16" font-weight="bold" text-anchor="middle" fill="#e67700">Gather Final Join Result</text>

  <line x1="290" y1="520" x2="350" y2="550" stroke="#333" stroke-width="1.5" marker-end="url(#arrowhead)" />
  <line x1="650" y1="520" x2="450" y2="550" stroke="#333" stroke-width="1.5" marker-end="url(#arrowhead)" />

</svg>