<?xml version="1.0" encoding="UTF-8" standalone="no"?>
<!DOCTYPE svg PUBLIC "-//W3C//DTD SVG 1.1//EN" "http://www.w3.org/Graphics/SVG/1.1/DTD/svg11.dtd">
<svg width="100%" height="100%" viewBox="0 0 2000 1125" version="1.1" xmlns="http://www.w3.org/2000/svg" xmlns:xlink="http://www.w3.org/1999/xlink" xml:space="preserve" xmlns:serif="http://www.serif.com/" style="fill-rule:evenodd;clip-rule:evenodd;stroke-linejoin:round;stroke-miterlimit:2;">
    <rect width="2000" height="1125" fill="#121212"/>
    <g transform="translate(0,312.5)">
    <g transform="matrix(0.544943,0,0,0.544943,-2.19802,-31.9077)">
        <path d="M238.997,254.696C240.088,253.629 256.169,244.341 258.474,242.975L306.784,214.085L434.108,138.291C451.678,127.816 469.154,117.06 486.665,106.5C490.252,104.336 497.702,101.135 501.725,100.304C511.072,98.574 522.295,99.226 531.07,103.227C540.197,107.388 549.334,113.663 558.024,118.843L615.517,153.246L727.205,220.092C743.251,229.739 763.299,240.794 778.485,250.811C783.507,253.22 789.414,257.115 794.353,260.132C809.199,269.201 823.379,277.784 838.486,286.572C853.609,295.368 864.677,312.416 865.961,330.007C866.457,352.625 866.083,376.204 866.048,399L865.994,526.915L866.061,637.456L866.034,672.419C866.013,688.948 867.145,699.748 859.599,715.146C855.736,722.912 850.148,729.692 843.262,734.967C835.961,740.449 825.268,746.372 817.175,751.221L762.817,783.351C739.144,797.83 715.397,812.188 691.577,826.425C687.595,828.812 669.513,840.187 666.343,841.309C659.227,846.502 646.194,853.9 638.227,858.737L580.24,893.508L552.144,910.276C545.07,914.555 537.992,919.628 530.228,922.475C505.387,931.583 488.405,920.487 468.278,908.28L439.934,891.298C429.742,885.344 419.596,879.312 409.496,873.202C406.382,871.32 399.97,867.729 397.305,865.823C393.602,864.383 379.4,855.013 375.177,852.459C355.53,840.788 335.97,828.969 316.501,817.003L218.86,758.161C207.995,751.482 190.265,741.67 180.642,734.604C174.065,729.766 168.656,723.515 164.814,716.311C156.189,700.043 157.49,689.746 157.491,672.058L157.497,636.384L157.401,523.221L157.393,397.564L157.302,355.835C157.284,346.726 156.457,328.546 158.842,320.357C166.556,293.868 186.419,285.768 208.193,272.942C217.926,267.209 229.111,259.92 238.997,254.696Z" style="fill:url(#_Linear1);fill-rule:nonzero;"/>
        <path d="M234.261,425.257L280.573,452.592C284.947,455.161 302.583,465.111 305.581,468.016C309.596,469.744 316.305,474.405 320.317,476.853C329.191,482.187 338.103,487.459 347.051,492.668L458.642,558.396C484.661,573.67 507.601,594.399 537.545,575.54C543.037,572.081 548.778,568.624 554.327,565.236C563.677,559.6 573.074,554.043 582.518,548.565L662.481,501.39C679.276,491.544 700.808,479.566 716.881,468.969C716.924,477.178 717.591,498.905 716.772,506.356L716.883,598.757C717.05,611.198 717.096,623.639 717.02,636.08C716.938,663.675 716.547,692.649 717.077,720.143C715.544,721.978 688.345,737.509 683.86,740.21C646.15,763.153 608.209,785.711 570.04,807.881C558.313,814.727 534.269,830.948 522.618,834.034C514.099,836.365 505.061,835.938 496.799,832.815C490.661,830.48 481.178,824.473 475.312,820.999L438.825,799.298L306.011,721.133C305.942,719.073 305.75,716.895 305.604,714.829C305.586,716.745 305.499,717.857 305.26,719.761L304.843,719.907C290.512,710.459 273.45,699.95 258.373,691.699C231.911,677.216 234.269,668.308 234.234,641.07L234.254,593.186L234.261,425.257Z" style="fill:url(#_Linear2);fill-rule:nonzero;"/>
        <path d="M717.02,636.08C716.938,663.675 716.547,692.649 717.077,720.143C715.544,721.978 688.345,737.509 683.86,740.21C646.15,763.153 608.209,785.711 570.04,807.881C558.313,814.727 534.269,830.948 522.618,834.034C514.099,836.365 505.061,835.938 496.799,832.815C490.661,830.48 481.178,824.473 475.312,820.999L438.825,799.298L306.011,721.133C305.942,719.073 305.75,716.895 305.604,714.829C305.442,688.596 305.416,662.362 305.526,636.129C320.91,644.709 336.017,653.899 351.291,662.673L436.303,711.542L471.104,731.792C478.828,736.369 488.368,742.458 496.317,745.912C502.433,748.569 517.455,749.683 523.524,747.506C536.291,742.928 552.344,732.378 564.359,725.446C600.993,704.312 637.497,682.952 673.868,661.368C682.724,656.275 691.538,651.111 700.311,645.876C704.003,643.657 713.642,637.564 717.02,636.08Z" style="fill:url(#_Linear3);fill-rule:nonzero;"/>
        <path d="M234.261,425.257L280.573,452.592C284.947,455.161 302.583,465.111 305.581,468.016C305.476,480.729 305.473,493.442 305.57,506.154C305.808,536.564 306.302,568.761 305.778,599.093C305.588,611.437 305.504,623.783 305.526,636.129C305.416,662.362 305.442,688.596 305.604,714.829C305.586,716.745 305.499,717.857 305.26,719.761L304.843,719.907C290.512,710.459 273.45,699.95 258.373,691.699C231.911,677.216 234.269,668.308 234.234,641.07L234.254,593.186L234.261,425.257Z" style="fill:rgb(112,17,111);fill-rule:nonzero;"/>
        <path d="M305.581,468.016C309.596,469.744 316.305,474.405 320.317,476.853C329.191,482.187 338.103,487.459 347.051,492.668L458.642,558.396C484.661,573.67 507.601,594.399 537.545,575.54C543.037,572.081 548.778,568.624 554.327,565.236C563.677,559.6 573.074,554.043 582.518,548.565L662.481,501.39C679.276,491.544 700.808,479.566 716.881,468.969C716.924,477.178 717.591,498.905 716.772,506.356C709.674,509.818 699.38,516.428 692.387,520.631L658.317,540.793L568.513,593.506C554.678,601.62 538.757,612.224 524.281,618.431C506.284,626.149 488.216,612.525 472.829,603.547L436.164,582.294L338.95,525.527C327.812,519.116 316.792,512.383 305.57,506.154C305.473,493.442 305.476,480.729 305.581,468.016Z" style="fill:white;fill-rule:nonzero;"/>
        <path d="M716.883,598.757C717.05,611.198 717.096,623.639 717.02,636.08C713.642,637.564 704.003,643.657 700.311,645.876C691.538,651.111 682.724,656.275 673.868,661.368C637.497,682.952 600.993,704.312 564.359,725.446C552.344,732.378 536.291,742.928 523.524,747.506C517.455,749.683 502.433,748.569 496.317,745.912C488.368,742.458 478.828,736.369 471.104,731.792L436.303,711.542L351.291,662.673C336.017,653.899 320.91,644.709 305.526,636.129C305.504,623.783 305.588,611.437 305.778,599.093L388.309,646.296L458.172,687.186C469.345,693.661 493.009,709.306 504.169,711.372C512.42,712.929 520.945,712.069 528.719,708.897C533.417,706.986 538.66,702.989 543.283,700.434C560.861,690.559 578.321,680.475 595.658,670.182C624.498,653.581 653.234,636.799 681.863,619.836C693.925,612.625 705.213,606.781 716.883,598.757Z" style="fill:white;fill-rule:nonzero;"/>
        <path d="M311.568,293.881C357.784,267.066 403.729,238.515 450.003,211.4C458.309,206.532 466.557,201.565 474.745,196.501C505.676,177.624 516.732,175.156 548.065,196.09C554.52,200.403 563.42,205.413 570.249,209.523L656.578,261.588C670.046,269.859 683.593,278.003 697.215,286.018C702.573,289.205 712.009,295.223 717.34,297.896C720.419,300.178 726.986,303.703 730.611,305.841C708.088,318.872 682.906,334.965 660.378,346.996C652.1,351.917 638.82,360.252 630.433,364.202C627.155,367.235 612.448,375.701 607.835,378.466L550.303,412.36C507.231,437.676 517.597,437.742 473.709,412.053C456.373,402.372 438.47,390.889 421.154,380.966C416.048,378.04 397.468,367.603 393.765,364.581C384.233,357.867 372.978,352.877 363.81,346.568C341.579,332.564 315.833,318.527 292.952,305.138C298.126,301.436 305.795,297.58 311.568,293.881Z" style="fill:rgb(112,17,111);fill-rule:nonzero;"/>
        <path d="M393.765,364.581C419.092,349.416 444.567,334.5 470.186,319.834C485.224,311.119 504.862,294.53 523.546,302.284C535.335,307.177 548.664,316.395 559.944,322.956C583.425,336.615 606.611,351.131 630.433,364.202C627.155,367.235 612.448,375.701 607.835,378.466L550.303,412.36C507.231,437.676 517.597,437.742 473.709,412.053C456.373,402.372 438.47,390.889 421.154,380.966C416.048,378.04 397.468,367.603 393.765,364.581Z" style="fill:url(#_Linear4);fill-rule:nonzero;"/>
        <path d="M473.709,412.053C480.957,407.922 508.596,389.724 516.121,393.519C524.812,397.902 542.487,406.578 550.303,412.36C507.231,437.676 517.597,437.742 473.709,412.053Z" style="fill:white;fill-rule:nonzero;"/>
        <path d="M363.81,346.568C393.748,328.614 423.802,310.851 453.968,293.282L481.289,276.919C487.032,273.503 495.191,268.447 501.317,266.224C507.386,263.996 513.98,263.618 520.264,265.137C528.834,267.2 553.714,283.432 563.067,289.058C594.927,308.22 629.047,327.127 660.378,346.996C652.1,351.917 638.82,360.252 630.433,364.202C606.611,351.131 583.425,336.615 559.944,322.956C548.664,316.395 535.335,307.177 523.546,302.284C504.862,294.53 485.224,311.119 470.186,319.834C444.567,334.5 419.092,349.416 393.765,364.581C384.233,357.867 372.978,352.877 363.81,346.568Z" style="fill:white;fill-rule:nonzero;"/>
        <path d="M716.881,468.969C721.52,465.411 734.46,458.107 739.922,454.821C756.505,444.931 773.03,434.944 789.496,424.86L789.456,587.321L789.483,633.077C789.474,650.859 791.116,670.902 775.913,684.197C763.761,694.826 746.724,701.812 733.17,710.774C730.072,712.73 719.786,719.257 717.077,720.143C716.547,692.649 716.938,663.675 717.02,636.08C717.096,623.639 717.05,611.198 716.883,598.757L716.772,506.356C717.591,498.905 716.924,477.178 716.881,468.969Z" style="fill:rgb(112,17,111);fill-rule:nonzero;"/>
    </g>
    <g transform="matrix(1.07078,0,0,1.07078,-172.847,-1.52216)">
        <g transform="matrix(323.027,0,0,323.027,605.249,354.446)">
            <path d="M0.057,-0L0.057,-0.72L0.139,-0.72L0.139,-0.401L0.371,-0.401L0.639,-0.72L0.743,-0.72L0.743,-0.719L0.442,-0.36L0.744,-0.001L0.744,-0L0.639,-0L0.371,-0.319L0.139,-0.319L0.139,-0L0.057,-0Z" style="fill:rgb(221,50,74);fill-rule:nonzero;"/>
        </g>
        <g transform="matrix(323.027,0,0,323.027,862.702,354.446)">
            <path d="M0.174,-0C0.152,-0 0.132,-0.005 0.114,-0.016C0.095,-0.027 0.081,-0.041 0.07,-0.059C0.059,-0.078 0.054,-0.098 0.054,-0.12L0.054,-0.6C0.054,-0.622 0.059,-0.642 0.07,-0.661C0.081,-0.679 0.095,-0.693 0.114,-0.704C0.132,-0.715 0.152,-0.72 0.174,-0.72L0.654,-0.72C0.676,-0.72 0.696,-0.715 0.715,-0.704C0.733,-0.693 0.747,-0.679 0.758,-0.661C0.769,-0.642 0.774,-0.622 0.774,-0.6L0.774,-0.12C0.774,-0.098 0.769,-0.078 0.758,-0.059C0.747,-0.041 0.733,-0.027 0.715,-0.016C0.696,-0.005 0.676,-0 0.654,-0L0.174,-0ZM0.174,-0.081L0.654,-0.081C0.665,-0.081 0.674,-0.085 0.682,-0.093C0.689,-0.1 0.693,-0.109 0.693,-0.12L0.693,-0.6C0.693,-0.611 0.689,-0.62 0.682,-0.627C0.674,-0.635 0.665,-0.639 0.654,-0.639L0.174,-0.639C0.163,-0.639 0.154,-0.635 0.147,-0.627C0.139,-0.62 0.135,-0.611 0.135,-0.6L0.135,-0.12C0.135,-0.109 0.139,-0.1 0.147,-0.093C0.154,-0.085 0.163,-0.081 0.174,-0.081Z" style="fill:rgb(221,50,74);fill-rule:nonzero;"/>
        </g>
        <g transform="matrix(323.027,0,0,323.027,1121.45,354.446)">
            <path d="M0.452,-0L0.035,-0.72L0.13,-0.72L0.499,-0.079L0.867,-0.72L0.962,-0.72L0.546,-0L0.452,-0Z" style="fill:rgb(221,50,74);fill-rule:nonzero;"/>
        </g>
        <g transform="matrix(323.027,0,0,323.027,1433.49,354.446)">
            <path d="M0.058,-0L0.058,-0.6C0.058,-0.622 0.063,-0.642 0.074,-0.661C0.085,-0.679 0.099,-0.693 0.117,-0.704C0.136,-0.715 0.156,-0.72 0.178,-0.72L0.658,-0.72C0.68,-0.72 0.7,-0.715 0.719,-0.704C0.737,-0.693 0.751,-0.679 0.762,-0.661C0.773,-0.642 0.778,-0.622 0.778,-0.6L0.778,-0L0.697,-0L0.697,-0.263L0.139,-0.263L0.139,-0L0.058,-0ZM0.139,-0.344L0.697,-0.344L0.697,-0.6C0.697,-0.611 0.693,-0.62 0.686,-0.627C0.678,-0.635 0.669,-0.639 0.658,-0.639L0.178,-0.639C0.167,-0.639 0.158,-0.635 0.151,-0.627C0.143,-0.62 0.139,-0.611 0.139,-0.6L0.139,-0.344Z" style="fill:rgb(221,50,74);fill-rule:nonzero;"/>
        </g>
        <g transform="matrix(323.027,0,0,323.027,1703.54,354.446)">
            <path d="M0.056,-0L0.056,-0.72L0.167,-0.72L0.695,-0.092L0.695,-0.72L0.776,-0.72L0.776,-0L0.665,-0L0.137,-0.628L0.137,-0L0.056,-0Z" style="fill:rgb(221,50,74);fill-rule:nonzero;"/>
        </g>
    </g>
    </g>
    <defs>
        <linearGradient id="_Linear1" x1="0" y1="0" x2="1" y2="0" gradientUnits="userSpaceOnUse" gradientTransform="matrix(-15.854,795.881,-795.881,-15.854,519.661,99.5431)"><stop offset="0" style="stop-color:rgb(255,90,50);stop-opacity:1"/><stop offset="1" style="stop-color:rgb(180,0,104);stop-opacity:1"/></linearGradient>
        <linearGradient id="_Linear2" x1="0" y1="0" x2="1" y2="0" gradientUnits="userSpaceOnUse" gradientTransform="matrix(3.4808,206.448,-206.448,3.4808,510.183,504.566)"><stop offset="0" style="stop-color:rgb(215,34,35);stop-opacity:1"/><stop offset="1" style="stop-color:rgb(255,75,53);stop-opacity:1"/></linearGradient>
        <linearGradient id="_Linear3" x1="0" y1="0" x2="1" y2="0" gradientUnits="userSpaceOnUse" gradientTransform="matrix(6.91895,203.309,-203.309,6.91895,509.37,631.096)"><stop offset="0" style="stop-color:rgb(211,36,39);stop-opacity:1"/><stop offset="1" style="stop-color:rgb(255,70,51);stop-opacity:1"/></linearGradient>
        <linearGradient id="_Linear4" x1="0" y1="0" x2="1" y2="0" gradientUnits="userSpaceOnUse" gradientTransform="matrix(0.43533,-109.178,109.178,0.43533,511.566,410.654)"><stop offset="0" style="stop-color:rgb(221,30,37);stop-opacity:1"/><stop offset="1" style="stop-color:rgb(253,76,51);stop-opacity:1"/></linearGradient>
    </defs>
</svg>
